<svg width="220" height="182" viewBox="0 0 220 182" fill="none" xmlns="http://www.w3.org/2000/svg">
    <g style="mix-blend-mode:multiply">
        <path d="M61.4981 169.04C81.5741 155.142 119.856 134.751 156.483 120.665C157.132 120.084 157.792 119.498 158.463 118.908C173.47 105.641 193.506 89.0899 195.92 70.994C198.296 52.8585 183.051 33.1389 164.401 22.4882C145.751 11.8748 123.697 10.2884 101.601 10.2441C79.5054 10.1998 57.3701 11.6721 46.356 23.6716C35.3932 35.6362 35.5516 58.1605 33.8883 78.7118C32.225 99.263 28.7027 117.874 34.0467 135.296C38.4146 149.635 48.816 163.221 61.4981 169.04Z" fill="#F8F8F8"/>
        <path d="M170.27 115.638C168.325 114.972 161.961 106.553 161.961 96.5617C161.961 84.9535 174.24 62.9813 175.407 55.154C176.15 50.1758 179.502 6.31738 204.96 6.31738C218.841 6.31738 219.999 33.4589 219.999 45.5982C219.999 73.9558 178.766 98.1108 178.766 112.841C176.004 113.973 173.165 114.908 170.27 115.638Z" fill="#F0ECE6"/>
        <path d="M173.402 114.586C173.402 91.8445 190.373 50.4112 205.301 35.8306" stroke="white" stroke-width="4" stroke-miterlimit="10" stroke-linecap="round"/>
        <path d="M75.4041 160.13C74.1042 159.743 70.5703 155.237 70.5703 149.432C70.5703 143.841 72.1404 135.688 72.1404 128.124C72.1404 123.917 70.5703 122.426 70.5703 117.42C70.5703 109.441 78.132 107.011 80.783 107.011C84.685 107.011 86.7723 110.349 86.7723 112.118C86.7723 114.585 86.0734 116.458 86.0734 119.188C86.0734 124.525 87.9371 125.193 87.7414 129.792C87.159 143.236 81.5774 156.379 76.6714 159.361L75.4041 160.13Z" fill="#F0ECE6"/>
        <path d="M75.4027 160.129C76.9962 158.755 68.074 115.286 60.3352 107.593C51.9163 99.2327 44.9952 94.8065 42.7099 92.0623C38.6565 87.1959 36.0754 68.8438 18.2334 68.8438C13.5137 68.8438 2.39245 72.7457 0.391371 89.2599C-0.263231 94.6807 -1.45363 102.974 9.82836 114.992C17.4273 123.09 26.9319 120.301 36.2221 129.074C42.9102 135.39 41.9738 144.915 48.2193 152.964C53.2162 159.393 66.1894 168.066 75.4027 160.129Z" fill="#F0ECE6"/>
        <path d="M73.2117 161.167C73.2117 150.258 38.7973 101.02 25.0273 93.978" stroke="white" stroke-width="4" stroke-miterlimit="10" stroke-linecap="round"/>
        <path d="M75.4017 160.129C75.0593 157.544 73.615 135.576 77.708 127.572" stroke="white" stroke-width="4" stroke-linecap="round" stroke-linejoin="round"/>
        <path d="M48.2227 180.301C58.5216 165.595 150.522 115.421 205.791 106.152" stroke="#F0ECE6" stroke-width="3" stroke-miterlimit="10" stroke-linecap="round"/>
        <path d="M127.803 26.3022H105.456C103.912 26.3022 102.66 27.5538 102.66 29.0977V75.451C102.66 76.9949 103.912 78.2465 105.456 78.2465H127.803C129.347 78.2465 130.598 76.9949 130.598 75.451V29.0977C130.598 27.5538 129.347 26.3022 127.803 26.3022Z" fill="#753C37"/>
        <path d="M105.064 163.177V169.234H88.6172V166.671L98.8066 161.991L105.064 163.177Z" fill="#333333"/>
        <path d="M140.738 157.369C141.57 159.233 143.534 164.062 143.534 164.062L135.327 169.222H127.891L127.02 166.371L136.361 159.221L140.738 157.369Z" fill="#333333"/>
        <path d="M112.314 25.1426C116.144 25.1426 119.249 21.2273 119.249 16.3975C119.249 11.5677 116.144 7.65234 112.314 7.65234C108.484 7.65234 105.379 11.5677 105.379 16.3975C105.379 21.2273 108.484 25.1426 112.314 25.1426Z" fill="#C68D7A"/>
        <path d="M107.263 0.777322C106.354 -0.471314 103.789 -0.189439 101.534 1.43425C100.681 2.03636 99.9554 2.80208 99.4004 3.68693C99.3269 3.65423 99.2478 3.63603 99.1674 3.63335C98.0725 3.63335 79.8718 13.3685 80.0442 17.8599C80.2166 22.3512 86.3223 29.5542 88.4538 30.9356C88.4538 30.9356 98.0725 26.4443 97.5554 25.0023C97.0382 23.5603 91.4986 18.9455 90.5271 18.0323C91.6686 17.4359 100.805 8.38329 101.837 7.35829C102.92 7.12657 103.941 6.66502 104.831 6.00482C107.081 4.3788 108.173 2.03994 107.263 0.777322Z" fill="#C68D7A"/>
        <path d="M102.034 38.8172C104.13 37.1306 100.659 22.988 96.9392 22.6409C93.2189 22.2938 86.7311 29.3034 86.992 31.2928C87.2529 33.2822 96.7365 43.057 102.034 38.8172Z" fill="#998663"/>
        <path d="M93.7109 72.6762C93.7109 75.0057 94.8757 155.608 96.9723 162.597C98.8359 163.528 103.728 163.761 105.359 163.063C106.989 162.364 117.395 73.9528 117.395 70.0718C117.395 66.1907 93.7109 72.6762 93.7109 72.6762Z" fill="#676E75"/>
        <path d="M135.487 160.079C133.263 156.584 104.295 88.7292 102.023 71.9984C104.402 70.1557 122.102 67.2182 123.534 70.5634C124.967 73.9086 142.171 156.614 141.581 157.688C140.992 158.762 137.16 160.437 135.487 160.079Z" fill="#71818F"/>
        <path d="M112.411 27.7163C127.437 27.7163 126.505 69.2987 123.244 71.8612C119.982 74.4237 94.4739 74.5402 92.8432 72.6765C91.2126 70.8129 87.3595 27.7163 112.411 27.7163Z" fill="#AD9771"/>
        <path d="M123.344 13.4263C123.344 11.6535 121.65 10.3746 121.65 9.39149C121.65 8.40842 122.23 6.64728 120.933 5.387C119.356 3.85648 116.842 4.49478 114.592 4.49478C112.477 4.49478 111.309 2.03711 108.423 2.03711C106.499 2.03711 106.744 4.53438 106.024 5.15404C105.49 5.61995 101.332 6.5145 101.332 8.41541C101.332 10.54 101.388 13.3913 105.8 13.3913C106.094 12.371 107.198 10.13 108.456 9.13291C109.103 9.41245 112.649 10.8754 113.527 11.134C114.405 11.3926 115.689 15.1525 117.049 15.6067C118.41 16.061 118.496 18.5652 119.491 18.4581C120.486 18.3509 123.344 17.9316 123.344 13.4263Z" fill="#753C37"/>
        <path d="M118.283 18.9196C119.295 18.9196 120.116 18.0988 120.116 17.0863C120.116 16.0738 119.295 15.2529 118.283 15.2529C117.27 15.2529 116.449 16.0738 116.449 17.0863C116.449 18.0988 117.27 18.9196 118.283 18.9196Z" fill="#C68D7A"/>
        <path d="M115.779 30.978C115.486 31.9913 109.324 30.7613 109.443 29.6152L110.496 19.4351L117.92 21.0331C117.92 21.0331 116.078 29.9693 115.779 30.978Z" fill="#C68D7A"/>
        <path d="M153.349 36.4385L145.773 165.605" stroke="#737B82" stroke-width="7" stroke-miterlimit="10" stroke-linecap="round"/>
        <path d="M153.568 72.0803C152.874 71.3784 151.978 70.9102 151.005 70.7408C147.898 65.7253 137.338 50.2664 132.681 44.6499C129.324 47.061 125.227 51.2775 125.227 51.2775C126.939 53.197 139.763 68.3693 146.586 74.319C146.582 74.9423 146.704 75.5599 146.944 76.1351C147.184 76.7103 147.538 77.2311 147.984 77.6666C149.71 79.3951 152.361 79.5442 153.903 78.0043C155.445 76.4645 155.294 73.8088 153.568 72.0803Z" fill="#C68D7A"/>
        <path d="M118.31 34.5297C124.337 30.05 134.272 40.8824 134.109 43.7314C133.946 46.5805 126.31 52.8982 123.698 52.9052C120.509 52.9099 113.18 38.3432 118.31 34.5297Z" fill="#BCA47E"/>
    </g>
</svg>
